<svg width="206" height="199" viewBox="0 0 206 199" fill="none" xmlns="http://www.w3.org/2000/svg">
<path fill-rule="evenodd" clip-rule="evenodd" d="M105 12.1001C109.67 12.0301 117.33 12.6901 122 13.5701C126.67 14.4501 134.32 16.7501 139 18.6801C143.68 20.6101 150.43 24.1301 154 26.5001C157.57 28.8601 162.99 33.2101 166.02 36.1501C169.06 39.0901 173.18 43.5201 175.17 46.0001C177.16 48.4801 180.4 53.4201 182.36 57.0001C184.32 60.5801 187.11 66.8801 188.55 71.0001C189.99 75.1301 191.84 83.2201 192.67 89.0001C193.9 97.5401 193.97 101.09 193.04 108C192.41 112.67 191.22 119.2 190.4 122.5C189.58 125.8 186.7 133 184.01 138.5C181.24 144.16 176.59 151.51 173.31 155.45C170.11 159.27 164.57 164.78 161 167.7C157.43 170.61 150 175.23 144.5 177.95C139 180.68 131.8 183.63 128.5 184.53C125.2 185.42 116.87 186.39 110 186.69C101.03 187.08 95.2401 186.81 89.5001 185.72C85.1001 184.89 77.9001 182.83 73.5001 181.13C69.1001 179.44 62.2401 175.91 58.2501 173.28C54.2701 170.65 48.2501 165.8 44.8901 162.5C41.5201 159.2 36.8301 153.8 34.4601 150.5C32.1001 147.2 28.5501 141.12 26.5901 137C24.6401 132.87 22.0401 125.9 20.8401 121.5C19.0601 115 18.6501 110.87 18.6701 99.5001C18.6901 88.3101 19.1301 83.9001 20.8701 77.5001C22.0701 73.1001 24.4201 66.5801 26.1001 63.0001C27.7701 59.4201 30.9601 53.8001 33.1901 50.5001C35.4101 47.2001 39.7701 41.8701 42.8601 38.6601C45.9601 35.4501 51.2001 30.8901 54.5001 28.5301C57.8001 26.1701 63.2001 22.8801 66.5001 21.2301C69.8001 19.5701 75.6501 17.2501 79.5001 16.0701C83.3501 14.8901 88.7501 13.5501 91.5001 13.0801C94.2501 12.6201 100.32 12.1801 105 12.1001ZM88.4701 19.7101C86.2901 20.8301 82.2501 23.6701 79.5001 26.0401C76.7501 28.4101 72.8801 32.4001 70.9001 34.9201C68.9301 37.4401 66.0001 41.7401 64.4001 44.4701C61.8201 48.8801 61.7201 49.3401 63.5001 48.6201C64.6001 48.1801 69.7801 46.7201 75.0001 45.3901C80.2201 44.0601 87.76 42.4901 89 42.5001C89 42.5001 89.2001 42.2001 89.9401 39.2501C90.4601 37.1901 91.2001 34.1501 91.5801 32.5001C91.9701 30.8501 93.5701 26.5801 95.1401 23.0001C96.7101 19.4201 97.8501 16.4601 97.6701 16.4101C97.4801 16.3601 96.2301 16.6201 94.8901 17.0001C93.5401 17.3701 90.6501 18.5901 88.4701 19.7101ZM99.2101 21.5001C98.6401 22.6001 97.0001 27.1001 95.5701 31.5001C94.1301 35.9001 92.99 40.81 93 41.5C93 41.5 96.2801 42.0001 106 42.0001H119C117.66 36.9601 116.76 33.7001 116.13 31.5001C115.51 29.3001 113.75 25.0201 112.22 22.0001C109.87 17.3601 108.97 16.4501 106.42 16.2001C104.46 16.0101 102.84 16.5401 101.82 17.7001C100.96 18.6901 99.7901 20.4001 99.2101 21.5001ZM115.28 20.1601C116.43 22.5501 118.59 28.5501 120.08 33.5001L122.8 42.5001C135.74 45.0801 141.64 46.5501 144.25 47.4201C147.03 48.3401 149 48.5801 149 48.0001C149 47.4501 146.81 43.7401 144.12 39.7501C141.44 35.7601 136.6 30.1001 133.37 27.1601C130.14 24.2201 125.25 20.7701 122.5 19.4901C119.75 18.2101 116.53 16.8601 115.35 16.4901L113.2 15.8201L115.28 20.1601ZM56.5001 31.4601C53.2001 33.8301 48.0001 38.4101 44.9401 41.6301C41.8901 44.8601 37.8601 49.7501 35.9901 52.5001C34.1301 55.2501 30.8901 61.2101 28.8001 65.7501C26.7101 70.2901 25.0101 74.5601 25.0301 75.2501C25.0501 75.9401 25.7301 75.6001 26.5401 74.5001C27.3501 73.4001 30.4501 70.0301 33.4201 67.0001C36.3901 63.9801 42.8001 59.1501 47.6601 56.2801C56.2101 51.2301 56.6701 50.7601 61.9201 41.9601C65.6101 35.7801 69.6901 30.6601 74.7101 25.9401C78.7601 22.1201 81.5001 19.0101 80.7901 19.0301C80.0801 19.0401 75.6701 20.8801 71.0001 23.1001C66.3201 25.3301 59.8001 29.0901 56.5001 31.4601ZM139.62 28.1301C141.35 29.9801 144.57 34.2001 146.78 37.5001C149 40.8001 151.64 45.2401 152.65 47.3701C154.01 50.2001 155.82 51.9001 159.5 53.7401C162.25 55.1101 167.2 58.1401 170.5 60.4701C173.8 62.7901 178.86 67.3501 181.76 70.6001L187.02 76.5001C184.89 70.3001 182.68 65.3501 180.75 61.5001C178.81 57.6501 174.59 51.1501 171.36 47.0401C168.14 42.9401 162.12 36.9301 158 33.6901C153.87 30.4401 146.9 26.0501 142.5 23.9201C138.1 21.7901 133.16 19.7201 131.54 19.3001C128.65 18.5701 128.68 18.6401 132.54 21.6501C134.71 23.3601 137.9 26.2701 139.62 28.1301ZM91 52.5001C90.42 57.4501 88.8401 69.0901 88.5401 72.2501L88.0001 78.0001L123.5 78.0201C122.25 63.6701 121.35 56.3501 120.69 52.5001L119.5 45.5001C94.5101 44.9701 93 45.5001 93 45.5001C93 45.5001 91.59 47.5501 91 52.5001ZM61.7501 53.2601C59.7801 54.5001 58.4201 56.7901 57.0001 61.2501C55.9001 64.6901 54.3501 70.6501 53.5501 74.5001C52.7501 78.3501 52.1901 81.6201 52.3001 81.7601C52.4101 81.9101 58.1201 81.3501 65.0001 80.5301C71.8701 79.7001 79.0701 78.9101 80.9901 78.7701L84.4901 78.5001C86.2101 62.2301 86.9701 54.9101 87.2901 51.7501C87.7101 47.6301 87.5401 46.0101 86.6901 46.0401C86.0301 46.0701 80.7701 47.3101 75.0001 48.8001C69.2201 50.3001 63.2601 52.3001 61.7501 53.2601ZM125.07 61.5001C125.67 67.5501 126.35 73.9601 126.58 75.7501C126.98 78.8401 127.2 79.0001 131.25 79.0001C133.58 79.0001 140.67 79.6601 147 80.4801C153.32 81.2901 158.72 81.7201 159 81.4401C159.27 81.1601 158.75 77.4501 157.83 73.2101C156.91 68.9701 155.23 62.9101 154.08 59.7501C152.35 54.9801 151.4 53.7501 148.5 52.5001C146.57 51.6801 141.73 50.1401 137.75 49.0901C133.76 48.0301 128.76 46.8801 126.64 46.5201C122.97 45.8901 122.81 45.9801 123.38 48.1801C123.7 49.4601 124.47 55.4501 125.07 61.5001ZM35.6301 69.6201C32.2601 72.9801 28.1801 78.1501 26.5801 81.1201C24.9701 84.0801 23.2901 87.7401 22.8301 89.2501C22.3701 90.7601 22.2201 92.0001 22.5001 92.0001C22.7701 92.0001 25.1301 90.9201 27.7501 89.5901C30.3601 88.2601 34.9701 86.5001 38.0001 85.6801C41.0201 84.8501 44.6201 83.9401 46.0001 83.6501C48.2101 83.1801 48.6401 82.3301 49.7101 76.3101C50.3701 72.5701 51.7501 66.6001 52.7601 63.0401C53.7801 59.4901 54.5501 56.4701 54.4801 56.3201C54.4101 56.1701 51.5101 57.7201 48.0501 59.7701C44.5901 61.8201 39.0001 66.2501 35.6301 69.6201ZM161.59 75.0001C162.45 79.1301 163.34 82.8401 163.57 83.2501C163.81 83.6601 165.01 84.0001 166.25 83.9901C167.48 83.9801 171.65 85.0401 175.5 86.3401C179.35 87.6401 183.96 89.4501 185.75 90.3501C188.13 91.5601 189 91.6701 189 90.7501C188.99 90.0601 187.6 86.5801 185.89 83.0001C183.823 78.6667 180.573 74.3101 176.14 69.9301C172.49 66.3101 166.68 61.7001 163.25 59.6801C159.81 57.6601 156.86 56.0001 156.68 56.0001C156.51 56.0001 157.2 58.5901 158.2 61.7501C159.21 64.9101 160.74 70.8801 161.59 75.0001ZM88.1601 82.1001C87.2401 95.5901 87.3101 103.67 87.7301 108.76L88.5001 118.02L124 118L124.02 82.5001C114.31 81.3301 108.12 81.0701 104 81.1701C99.8701 81.2701 94.6201 81.5201 92.3301 81.7301L88.1601 82.1001ZM53.2401 85.9701C51.0901 86.9501 50.9901 87.5001 51.0101 99.2501C51.0201 105.98 51.3601 112.01 51.7601 112.65C52.1601 113.28 58.0101 114.52 64.7401 115.4C71.4801 116.28 78.5701 117 80.4901 117C83.1501 117 84.0001 116.57 84.0301 115.25C84.0501 114.28 84.0801 106.97 84.1001 99.0001C84.1101 91.0201 84.1001 83.9301 84.0601 83.2501C84.0201 82.5401 82.8001 82.0401 81.2401 82.1001C79.7301 82.1601 73.3201 82.8301 66.9901 83.5801C60.6701 84.3301 54.4801 85.4101 53.2401 85.9701ZM126.99 117C132.81 117 139.89 116.3 146.49 115.44C153.09 114.58 158.94 113.43 159.49 112.88C160.05 112.33 160.49 106.41 160.49 99.4101C160.49 89.3701 160.2 86.7501 158.99 86.0501C158.17 85.5701 153.22 84.6901 147.99 84.1001C142.77 83.5001 135.97 82.7401 132.88 82.3901L127.26 81.7701L126.99 117ZM24.9901 94.8201C23.6101 95.8501 22.3601 97.7801 22.2001 99.1001C22.0401 100.42 22.7101 102.34 23.7001 103.38C24.6801 104.41 27.5101 106.13 29.9901 107.19C32.4601 108.26 37.5201 110 41.2401 111.06L47.9901 113C47.9901 88.2601 47.8201 87.0001 46.2401 87.0401C45.2701 87.0701 40.6601 88.4101 35.9901 90.0101C31.3101 91.6201 26.3601 93.7801 24.9901 94.8201ZM163.94 112.75C163.97 112.88 166.8 112.16 170.24 111.13C173.67 110.11 178.74 108.32 181.49 107.16C184.24 106 187.31 104.25 188.32 103.27C189.52 102.11 189.97 100.63 189.64 99.0001C189.29 97.3001 187.58 95.6401 184.3 93.8401C181.65 92.3801 176.34 90.2401 172.49 89.0701C168.64 87.9101 165.04 86.9601 164.49 86.9701C163.86 86.9901 163.56 91.7901 163.69 99.7501C163.8 106.76 163.91 112.61 163.94 112.75ZM22.5101 109.18C22.9001 110.45 24.4101 113.91 25.8601 116.86C27.3001 119.8 30.5401 124.53 33.0501 127.36C35.5601 130.18 40.7401 134.6 44.5501 137.17C48.3701 139.74 52.2701 142.1 53.2401 142.42C54.8901 142.97 54.9001 142.72 53.3301 137.75C52.4201 134.86 50.9601 128.93 50.0801 124.56L48.4901 116.63C34.5401 112.56 28.5301 110.36 26.1401 109.12L21.7901 106.87L22.5101 109.18ZM172.74 113.71C163.07 116.47 162.99 116.52 162.4 119.99C162.08 121.92 160.73 127.77 159.4 132.99C158.07 138.22 157.1 142.59 157.24 142.71C157.37 142.84 160.35 141.26 163.86 139.21C167.36 137.17 172.99 132.77 176.36 129.44C180.3 125.55 183.64 121 185.74 116.69C187.52 113 188.85 109.31 188.68 108.48C188.43 107.22 187.91 107.29 185.43 108.95C183.81 110.04 178.1 112.18 172.74 113.71ZM55.0001 130.99C56.0301 135.12 57.5701 140.18 58.4301 142.24C59.9001 145.79 60.4701 146.14 69.2401 148.9C74.3201 150.5 80.6201 152.07 83.2401 152.4C86.6901 152.83 87.9801 152.65 87.9501 151.74C87.9401 151.05 87.2801 145.77 86.4901 139.99C85.7001 134.22 85.0301 127.58 85.0201 125.24C84.9901 121.66 84.6301 120.91 82.7401 120.5C81.5001 120.24 78.4601 120.01 75.9901 120C73.5101 119.98 68.5601 119.53 64.9901 118.98C61.4101 118.44 57.0001 117.74 55.1901 117.43C51.9201 116.87 51.8901 116.89 52.5001 120.18C52.8401 122 53.9601 126.87 55.0001 130.99ZM137.49 119.72L127.49 120.49C126.42 125.92 125.48 133.12 124.71 139.99C123.94 146.87 123.48 152.72 123.69 152.99C123.89 153.27 126.85 152.89 130.27 152.15C133.69 151.42 139.97 149.62 144.23 148.15L151.98 145.49C156.54 131.54 158.09 125.13 158.37 122.24C158.73 118.52 158.53 117.02 157.68 117.1C157.02 117.16 154.46 117.61 151.99 118.08C149.51 118.56 142.99 119.3 137.49 119.72ZM88.4901 127.24C88.8301 130.68 89.5501 136.87 90.0901 140.99C90.6301 145.12 91.2801 149.73 91.5301 151.24L91.9901 153.99C113.49 153.99 119.19 153.58 119.49 152.99C119.76 152.44 120.66 146.93 121.49 140.74C122.32 134.55 122.99 127.58 122.99 125.24V120.99H87.8701L88.4901 127.24ZM27.0901 129.99C28.2401 133.02 29.9801 137.07 30.9601 138.99C31.9401 140.92 35.4401 146.09 38.7301 150.49C42.0201 154.89 47.8201 161.03 51.6001 164.13C55.3901 167.24 61.4101 171.37 64.9901 173.32C68.5601 175.27 73.9601 177.8 76.9901 178.96L82.4901 181.06C72.9801 172.09 68.8701 167.69 67.2201 165.49C65.5701 163.29 62.4801 158.38 60.3501 154.59C56.9901 148.58 55.7701 147.33 50.9901 144.95C47.9601 143.45 42.5901 140.03 39.0401 137.35C35.5001 134.68 30.9701 130.31 28.9801 127.65C26.9901 124.99 25.2801 123.19 25.1801 123.65C25.0701 124.11 25.9301 126.97 27.0901 129.99ZM169.49 139.55C166.19 141.88 161.31 144.81 158.65 146.07C155.18 147.7 153.49 149.21 152.66 151.42C152.03 153.11 149.45 157.64 146.93 161.49C144.41 165.34 139.23 171.34 135.42 174.83L128.49 181.17C139.34 177.08 144.51 174.71 146.99 173.27C149.46 171.83 153.74 168.99 156.49 166.97C159.24 164.94 164.2 160.41 167.51 156.89C170.83 153.37 175.43 147.34 177.73 143.49C180.04 139.64 182.96 133.6 184.22 130.07C185.48 126.53 186.47 123.53 186.41 123.4C186.36 123.26 183.88 125.88 180.9 129.23C177.92 132.57 172.79 137.21 169.49 139.55ZM64.2701 154.79C65.7001 157.37 68.9201 162.08 71.4301 165.24C73.9301 168.4 78.5701 172.92 81.7401 175.28C84.9001 177.63 89.6201 180.44 92.2301 181.53C94.8401 182.61 97.2201 183.27 97.5101 182.99C97.8101 182.72 97.1701 180.92 96.0801 178.99C94.9901 177.07 92.9301 171.44 91.4901 166.49C90.0501 161.54 88.7901 157.38 88.6801 157.25C88.5701 157.12 84.4401 156.15 79.4901 155.09C74.5401 154.03 68.5101 152.47 66.0901 151.63L61.6901 150.08L64.2701 154.79ZM124.98 156.47C122.79 156.87 122.19 157.97 120.2 165.21C118.95 169.77 116.93 175.62 115.7 178.21C114.16 181.49 113.86 182.94 114.73 182.96C115.41 182.98 119.2 181.31 123.13 179.25C127.07 177.18 132.55 173.25 135.32 170.5C138.09 167.75 142.29 162.46 144.67 158.75C147.04 155.03 148.98 151.77 148.98 151.5C148.98 151.22 148.41 151.05 147.73 151.1C147.04 151.16 142.2 152.29 136.98 153.61C131.75 154.93 126.35 156.21 124.98 156.47ZM95.4301 167.5C96.7701 171.9 98.9001 177.03 100.17 178.9C101.44 180.78 103.26 182.8 104.23 183.4C105.49 184.2 106.46 184.19 107.73 183.4C108.69 182.8 110.49 180.55 111.73 178.4C112.96 176.25 114.91 171.35 116.04 167.5C117.18 163.65 118.3 159.82 118.53 159C118.89 157.72 117.03 157.5 105.96 157.5C97.9701 157.5 92.9801 157.88 92.9801 158.5C92.9901 159.05 94.0901 163.1 95.4301 167.5Z" fill="black"/>
</svg>
