<svg width="1417" height="527" viewBox="0 0 1417 527" fill="none" xmlns="http://www.w3.org/2000/svg">
<g opacity="0.96" filter="url(#filter0_n_6_7)">
<path fill-rule="evenodd" clip-rule="evenodd" d="M117.65 1.03831C118.53 1.66831 119.17 1.65831 119.5 1.00831C119.81 0.378307 120.46 0.358307 121.25 0.948307C121.94 1.45831 123.17 1.78831 124 1.66831C124.82 1.54831 126.17 1.01831 126.99 0.478307C128.08 -0.231693 128.28 -0.161694 127.74 0.758307C127.33 1.44831 127.45 2.00831 128 2.00831C128.55 2.00831 129.05 1.63831 129.1 1.17831C129.16 0.728306 130.69 0.388306 132.5 0.428306C134.32 0.478306 135.62 0.848307 135.4 1.25831C135.18 1.66831 135.86 1.89831 136.91 1.75831C137.96 1.61831 138.63 1.16831 138.41 0.758307C138.18 0.348307 152.62 0.00830636 170.5 0.00830636C196.2 0.00830636 202.86 0.268306 202.31 1.25831C201.76 2.25831 201.99 2.25831 203.49 1.26831C204.52 0.588306 205.4 0.248306 205.43 0.518306C205.47 0.788307 207.07 1.25831 209 1.54831C210.93 1.84831 211.98 1.73831 211.35 1.29831C210.71 0.868306 213.31 0.508307 217.13 0.508307C221.29 0.508307 224.36 0.968306 224.79 1.65831C225.29 2.47831 230.05 2.69831 241.25 2.40831C249.91 2.18831 256.82 2.34831 256.6 2.75831C256.38 3.16831 257.16 3.51831 258.35 3.53831C259.53 3.55831 264.32 3.90831 269 4.31831C273.68 4.72831 280.87 5.53831 285 6.12831C289.12 6.70831 293.85 7.65831 295.5 8.23831C297.15 8.80831 300.75 10.3383 303.5 11.6183C306.25 12.8983 310.75 16.1383 313.5 18.8283C316.25 21.5183 319.7 25.9283 321.17 28.6183C322.63 31.3083 324.59 36.4283 325.51 40.0083C326.57 44.0883 326.99 48.3683 326.65 51.5083C326.35 54.2583 325.62 58.7583 325.02 61.5083C324.42 64.2583 322.48 69.4283 320.72 73.0083C318.72 77.0483 314.66 82.4883 310 87.3783C305.88 91.7083 298.9 98.2283 294.5 101.858C290.1 105.498 286.27 108.728 286 109.038C285.73 109.348 283.93 110.688 282 112.008C280.07 113.328 278.27 114.688 278 115.038C277.73 115.378 273.9 118.318 269.5 121.578C265.1 124.828 261.27 127.728 261 127.998C260.73 128.278 256.23 131.908 251 136.068C245.77 140.228 240.32 144.498 238.87 145.568C237.42 146.638 225.35 156.058 212.04 166.508C198.73 176.958 182.14 189.888 175.17 195.248C168.2 200.598 158.45 208.128 153.5 211.978C148.55 215.818 142.93 220.208 141 221.728C139.07 223.248 134.75 226.738 131.39 229.498C128.03 232.248 122.02 236.978 118.03 240.008C114.05 243.038 107.77 247.978 104.07 251.008C100.37 254.038 95.58 257.848 93.43 259.488C91.27 261.128 87.87 264.048 85.87 265.988C83.88 267.928 81.68 271.308 80.99 273.508C80.31 275.708 80 278.638 80.31 280.008C80.62 281.388 84.84 286.388 89.69 291.128C94.53 295.858 100.52 301.488 102.99 303.628C105.46 305.758 107.99 307.958 108.61 308.508C109.23 309.058 112.16 311.768 115.12 314.518C118.08 317.278 126.36 324.928 133.53 331.518C140.69 338.118 153.04 349.358 160.96 356.508C168.88 363.658 184.4 377.828 195.45 388.008C206.49 398.188 217.33 408.028 219.52 409.878C221.71 411.738 227.1 416.698 231.5 420.908C235.9 425.118 241.3 430.088 243.5 431.938C245.7 433.788 250.2 437.768 253.5 440.788C256.8 443.808 262.42 449.118 266 452.598C269.57 456.068 273.4 458.938 274.5 458.968C276.43 459.018 276.47 458.618 275.74 447.768C275.33 441.568 274.78 435.388 274.52 434.008C274.26 432.638 273.38 424.528 272.56 416.008C271.74 407.488 270.41 395.558 269.61 389.508C268.81 383.458 267.64 374.008 267.01 368.508C266.38 363.008 265.44 355.358 264.91 351.508C264.38 347.658 263.53 339.558 263.02 333.508C262.51 327.458 261.57 316.658 260.94 309.508C260.29 302.088 260.06 290.288 260.41 282.008C260.75 274.028 261.66 264.578 262.44 261.008C263.22 257.438 264.48 252.258 265.26 249.508C266.03 246.758 267.89 241.808 269.4 238.508C270.91 235.208 274.25 229.358 276.82 225.508C279.39 221.658 284.42 215.398 288 211.598C291.57 207.798 296.79 202.848 299.59 200.598C302.4 198.348 307.81 193.808 311.62 190.508C315.44 187.208 320.77 182.708 323.48 180.508C326.18 178.308 329.99 175.118 331.95 173.418C333.9 171.728 338.01 168.348 341.09 165.918C344.16 163.498 351.13 157.908 356.58 153.508C362.03 149.108 368.6 143.938 371.19 142.008C373.78 140.078 379.64 135.608 384.2 132.068C388.77 128.518 392.73 125.348 393 124.998C393.27 124.658 398.45 120.678 404.5 116.158C410.55 111.628 417.38 106.488 419.68 104.718C421.98 102.948 426.93 99.1383 430.68 96.2383C434.43 93.3383 442.19 87.4883 447.93 83.2383C453.66 78.9883 463.17 71.9083 469.06 67.5083C474.95 63.1083 484.89 55.6483 491.14 50.9283C497.39 46.2083 503.46 41.7083 504.64 40.9283C505.81 40.1483 508.52 37.9283 510.64 36.0083C512.77 34.0883 518.33 29.3483 523 25.4883C527.68 21.6183 534.65 16.0183 538.5 13.0383C542.35 10.0483 547.75 6.74831 550.5 5.70831C553.833 4.44164 558.167 3.79164 563.5 3.75831C568.64 3.71831 573.47 4.34831 577 5.50831C580.02 6.49831 584.75 8.72831 587.5 10.4783C590.25 12.2183 594.08 15.4683 596 17.6983C597.92 19.9283 602.26 26.6483 605.63 32.6283C609 38.6183 614.57 48.9083 618.01 55.5083C621.45 62.1083 628.87 76.5083 634.51 87.5083C640.15 98.5083 649.82 117.408 656 129.508C662.19 141.608 674.7 166.138 683.8 184.008C692.91 201.888 703.48 222.808 707.29 230.508C711.1 238.208 715.52 246.978 717.11 250.008C718.7 253.038 736.27 287.908 756.14 327.508C776.01 367.108 797.12 408.958 803.04 420.508C808.95 432.058 814.18 441.618 814.65 441.758C815.12 441.898 815.84 427.728 816.25 410.258C816.66 392.798 817 364.328 817 347.008C817 329.688 816.29 289.628 815.41 258.008C814.34 219.258 813.99 183.708 814.34 149.008C814.62 120.688 815.32 88.5083 815.9 77.5083C816.48 66.5083 817.45 54.3583 818.07 50.5083C818.68 46.6583 819.8 41.7083 820.56 39.5083C821.32 37.3083 822.53 33.9283 823.25 32.0083C823.98 30.0883 825.34 27.0483 826.29 25.2583C827.23 23.4683 829.73 20.3183 831.84 18.2583C833.95 16.1983 839.24 12.7383 843.59 10.5883C851.42 6.69831 851.62 6.65831 863.5 6.58831C872.72 6.52831 876.89 6.94831 881.5 8.41831C884.8 9.46831 889.08 11.3083 891 12.5183C892.92 13.7183 895.86 16.2283 897.53 18.1083C899.19 19.9783 903.26 25.5583 906.56 30.5083C909.86 35.4583 915.48 44.1583 919.03 49.8383C922.59 55.5283 929.39 66.3283 934.15 73.8383C938.91 81.3583 945.18 91.3383 948.08 96.0083C950.99 100.678 956.13 108.788 959.51 114.008C962.89 119.228 965.96 124.298 966.33 125.258C966.7 126.218 969.09 130.268 971.65 134.258C974.21 138.248 977.13 142.858 978.15 144.508C979.16 146.158 986.98 159.208 995.53 173.508C1004.07 187.808 1011.05 199.618 1011.03 199.758C1011.01 199.898 1013.48 204.058 1016.5 209.008C1019.52 213.958 1022 218.228 1022 218.508C1022 218.788 1023.06 220.698 1024.35 222.758C1025.64 224.818 1030.21 232.578 1034.51 240.008C1038.8 247.438 1043.14 254.858 1044.15 256.508C1045.16 258.158 1046.29 260.188 1046.68 261.008C1047.06 261.828 1049.09 265.318 1051.19 268.758C1053.28 272.198 1055 275.238 1055 275.508C1055 275.778 1058.45 281.968 1062.66 289.258C1066.87 296.548 1071.43 304.528 1072.79 307.008C1074.15 309.488 1075.61 311.958 1076.02 312.508C1076.43 313.058 1080.48 320.258 1085.01 328.508C1089.55 336.758 1096.05 348.238 1099.46 354.008C1102.88 359.778 1106.98 366.888 1108.59 369.788C1110.19 372.698 1111.95 375.058 1112.5 375.038C1113.16 375.018 1113.23 352.288 1112.7 307.258C1112.26 269.998 1111.63 235.908 1111.29 231.508C1110.94 227.108 1110.63 181.888 1110.5 38.5083L1112.71 32.0083C1114.35 27.1883 1116.44 23.8283 1120.79 19.0083C1124.7 14.675 1128.54 11.5916 1132.32 9.75831C1135.45 8.24831 1140.81 6.33831 1144.25 5.51831C1147.69 4.70831 1152.08 4.01831 1154 3.99831C1155.92 3.97831 1160.42 4.85831 1164 5.95831C1167.58 7.04831 1172.19 9.30831 1174.25 10.9783C1176.91 13.1283 1179.35 16.8483 1182.62 23.7583C1185.16 29.1183 1188.34 35.9883 1189.69 39.0083C1191.04 42.0383 1192.75 45.8583 1193.48 47.5083C1194.21 49.1583 1196.47 54.1083 1198.48 58.5083C1200.5 62.9083 1202.76 67.8583 1203.5 69.5083C1204.23 71.1583 1206.28 75.6583 1208.04 79.5083C1209.79 83.3583 1212.7 89.6583 1214.49 93.5083C1216.29 97.3583 1219.11 103.658 1220.77 107.508C1222.43 111.358 1226.26 119.688 1229.28 126.008C1232.3 132.328 1236.17 140.548 1237.89 144.258C1239.6 147.968 1241 151.228 1241 151.508C1241 151.788 1242.97 156.168 1245.38 161.258C1247.78 166.348 1252.1 175.688 1254.98 182.008C1257.85 188.328 1260.9 195.078 1261.77 197.008C1262.63 198.938 1265.74 205.568 1268.67 211.758C1271.6 217.948 1274 223.228 1274 223.508C1274 223.788 1276.03 228.288 1278.5 233.508C1280.97 238.728 1283 243.228 1283 243.508C1283 243.788 1284.38 247.048 1286.07 250.758C1287.76 254.468 1290.41 260.208 1291.97 263.508C1293.52 266.808 1296.37 272.888 1298.3 277.008C1300.23 281.138 1303.87 288.898 1306.4 294.258C1308.93 299.618 1311 304.238 1311 304.508C1311 304.778 1313.26 309.848 1316.03 315.758C1318.8 321.668 1321.05 326.738 1321.05 327.008C1321.04 327.278 1322.11 329.758 1323.42 332.508C1324.74 335.258 1327.25 340.658 1329.02 344.508C1330.79 348.358 1333.36 353.988 1334.75 357.008C1336.13 360.028 1339.45 367.118 1342.13 372.758C1344.81 378.398 1347 383.238 1347 383.508C1347 383.778 1349.06 388.398 1351.57 393.758C1354.08 399.118 1357.34 406.198 1358.82 409.488C1360.29 412.768 1363.14 418.848 1368.81 430.508L1369.56 426.508C1369.97 424.308 1370 402.938 1369.63 379.008C1369.25 355.078 1368.53 321.328 1368.02 304.008C1367.51 286.688 1366.83 252.938 1366.5 229.008C1366.18 205.078 1365.47 176.738 1364.93 166.008C1364.38 155.288 1363.9 123.788 1363.84 96.0083C1363.78 61.8983 1364.13 42.9083 1364.93 37.5083C1365.57 33.1083 1366.59 26.5883 1367.19 23.0083C1367.78 19.4383 1369 14.7483 1369.88 12.5883C1370.77 10.4383 1372.62 7.83831 1374 6.80831C1375.37 5.77831 1377.85 4.67831 1379.5 4.35831C1381.18 4.03831 1384.7 4.50831 1387.5 5.42831C1390.25 6.33831 1394.3 8.30831 1396.5 9.82831C1398.7 11.3383 1402.16 15.0383 1404.2 18.0383C1406.23 21.0483 1409.01 27.1083 1410.38 31.5083C1411.76 35.9083 1413.23 42.4383 1413.65 46.0083C1414.08 49.5883 1414.46 52.9583 1414.49 53.5083C1414.53 54.0583 1414.88 55.0683 1415.28 55.7583C1415.67 56.4483 1415.69 58.0183 1415.32 59.2583C1414.83 60.8683 1414.97 61.2983 1415.82 60.7583C1416.54 60.2983 1417 60.5983 1417 61.5083C1417 62.4083 1416.5 62.7283 1415.75 62.3183C1414.75 61.7683 1414.75 61.9183 1415.74 63.0683C1416.72 64.1983 1416.89 89.1683 1416.54 181.008C1416.29 245.088 1416.06 310.558 1416.01 326.508C1415.97 342.458 1415.84 358.348 1416 361.508V368.508V371.508C1416.09 374.118 1416 378.008 1416 378.008V380.508C1416 383.508 1416.02 385.908 1416.22 408.008C1416.45 432.628 1415.5 439.008 1415.5 439.008C1415 446.508 1414.5 448.008 1414.5 448.008C1414.5 448.008 1414 453.508 1413 457.508L1412 463.258L1411 469.508C1410.98 473.358 1410.11 480.558 1409.06 485.508C1408.01 490.458 1406.19 496.758 1405 499.508C1403.81 502.258 1401.52 506.528 1399.91 509.008C1398.3 511.488 1395.08 514.708 1392.74 516.178C1390.41 517.648 1386.47 519.128 1384 519.478C1380.27 519.988 1378.57 519.618 1374.11 517.298C1371.15 515.768 1366.47 512.028 1363.71 509.008C1360.96 505.988 1356.58 500.358 1353.99 496.508C1351.39 492.658 1346.73 485.348 1343.63 480.258C1340.54 475.168 1338 470.778 1338 470.508C1338 470.238 1336.14 466.968 1333.87 463.258C1331.59 459.548 1327.83 452.908 1325.5 448.508C1323.17 444.108 1319.11 436.458 1316.47 431.508C1313.83 426.558 1304.6 408.328 1295.96 391.008C1287.33 373.688 1278.91 356.578 1277.25 353.008C1275.6 349.438 1271.66 341.108 1268.5 334.508C1265.34 327.908 1261.43 319.578 1259.81 316.008C1258.19 312.438 1256.48 308.608 1256 307.508C1255.53 306.408 1254.49 303.938 1253.7 302.008C1252.92 300.078 1251.58 296.708 1250.73 294.508C1249.89 292.308 1247.08 285.328 1244.49 279.008C1241.9 272.688 1238.3 263.908 1236.49 259.508C1234.67 255.108 1231.08 246.328 1228.5 240.008C1225.91 233.688 1223.22 226.938 1222.5 225.008C1221.78 223.078 1220.19 219.038 1218.97 216.008C1217.75 212.978 1215.93 208.708 1214.93 206.508C1213.92 204.308 1211.71 198.908 1210.02 194.508C1208.33 190.108 1206.46 185.388 1205.86 184.008C1205.27 182.638 1204.21 180.158 1203.5 178.508C1202.8 176.858 1201.25 173.038 1200.06 170.008C1198.87 166.978 1197.5 163.608 1197.03 162.508C1196.55 161.408 1192.94 152.638 1189.02 143.008C1185.09 133.388 1181.5 124.608 1181.04 123.508C1180.58 122.408 1178.13 116.558 1175.6 110.508C1173.06 104.458 1170.99 99.1683 1170.99 98.7583C1171 98.3483 1169.61 94.9683 1167.92 91.2583C1166.22 87.5483 1164.2 83.0483 1163.42 81.2583C1162.64 79.4683 1162.02 77.6683 1162.04 77.2583C1162.07 76.8483 1161.38 75.8383 1160.52 75.0083C1159.66 74.1883 1158.63 73.8883 1158.23 74.3383C1157.83 74.7983 1157.47 105.628 1157.42 142.838C1157.38 180.058 1157.04 211.638 1156.66 213.008C1156.28 214.388 1155.85 251.728 1155.7 296.008C1155.56 340.278 1155.77 385.738 1156.17 397.008C1156.58 408.278 1157.39 428.528 1157.99 442.008C1158.58 455.488 1159.31 472.808 1159.61 480.508C1160.05 491.888 1159.82 495.818 1158.39 501.508C1157.17 506.358 1155.69 509.508 1153.56 511.768C1151.72 513.738 1148.12 515.868 1144.5 517.128C1139.95 518.708 1137.17 519.078 1133 518.628C1129.97 518.298 1127.05 517.568 1126.5 517.008C1125.95 516.438 1124.83 515.998 1124 516.028C1123.17 516.058 1119.31 513.708 1115.4 510.798C1111.5 507.888 1102.1 500.778 1094.52 495.008C1086.94 489.238 1079.78 483.838 1078.62 483.028C1077.45 482.218 1069.08 475.928 1060 469.068C1050.92 462.198 1043.05 456.198 1042.5 455.738C1041.95 455.268 1030.7 446.798 1017.5 436.918C1004.3 427.028 987.48 414.338 980.12 408.718C972.77 403.108 965.79 397.828 964.62 397.008C963.45 396.188 952.59 388.088 940.5 379.008C928.4 369.938 918.27 362.268 918 361.968C917.73 361.658 915.92 360.328 914 358.988C912.08 357.658 910.01 356.108 909.42 355.538C908.82 354.968 903.51 350.908 897.61 346.508C891.71 342.108 883.65 335.918 879.69 332.758C875.74 329.598 871.02 326.228 869.21 325.258C866.83 323.988 865.73 323.828 865.21 324.658C864.82 325.288 864.37 334.738 864.22 345.658C864.05 357.508 864.55 372.858 865.47 383.758C866.31 393.798 866.77 402.458 866.5 403.008C866.23 403.558 866.49 414.468 867.08 427.258C867.88 444.418 867.86 454.178 867.01 464.508C866.38 472.208 865.2 482.328 864.38 487.008C863.57 491.688 862.4 496.858 861.79 498.508C861.18 500.158 859.86 503.308 858.86 505.508C857.85 507.708 856.46 510.188 855.76 511.028C855.07 511.858 852.7 513.908 850.5 515.588C848.3 517.268 844.92 519.358 843 520.228C841.08 521.108 837.7 522.128 835.5 522.498C833.3 522.878 829.92 523.408 828 523.698C826.08 523.978 821.69 523.488 818.25 522.608C814.81 521.728 810.31 519.948 808.25 518.658C806.19 517.368 802.11 513.658 799.18 510.408C796.25 507.168 790.81 499.558 787.09 493.508C783.36 487.458 778.59 479.358 776.49 475.508C774.39 471.658 770.7 464.908 768.29 460.508C765.88 456.108 755.49 435.558 745.21 414.838C734.92 394.128 725.2 374.328 723.62 370.838C722.03 367.358 717.14 357.078 712.75 348.008C708.35 338.938 702.97 327.688 700.78 323.008C698.59 318.328 691.39 303.708 684.78 290.508C678.17 277.308 669.15 259.528 664.73 251.008C660.32 242.478 656.38 235.058 655.98 234.508C655.58 233.958 651.32 225.858 646.51 216.508C641.7 207.158 637.42 199.058 636.99 198.508C636.57 197.958 633.18 191.658 629.46 184.508C625.74 177.358 621.64 169.818 620.35 167.758C619.06 165.698 618 163.788 618 163.508C618 163.228 616.2 160.078 614 156.508C611.8 152.938 609.55 150.008 609 150.008C608.34 150.008 608.02 201.558 608.04 302.758C608.08 436.658 607.9 456.738 606.52 465.508C605.66 471.008 604.25 477.758 603.38 480.508C602.51 483.258 600.68 487.988 599.31 491.008C597.94 494.028 595.17 499.198 593.16 502.478C590.99 506.008 586.85 510.618 583 513.768C579.42 516.698 574.25 520.168 571.5 521.468C568.75 522.778 562.67 524.568 558 525.458C550.22 526.948 548.82 526.948 541.5 525.508C537.1 524.638 532.15 523.428 530.5 522.808C528.85 522.198 525.48 520.798 523 519.718C520.52 518.628 514.67 515.248 510 512.198C505.32 509.158 498.86 504.608 495.63 502.088C492.41 499.568 485.43 493.988 480.13 489.698C474.84 485.398 466.03 478.198 460.56 473.698C455.1 469.188 450.15 465.058 449.56 464.508C448.98 463.958 446.7 462.178 444.5 460.568C442.3 458.948 436.23 453.928 431 449.418C425.77 444.908 416.55 437.008 410.5 431.858C404.45 426.708 395.53 419.128 390.67 415.008C385.81 410.878 380.18 406.158 378.15 404.508C376.12 402.858 367.49 395.668 358.98 388.538C350.46 381.408 337.76 370.938 330.75 365.288C323.74 359.638 317.55 355.008 317 355.008C316.45 355.008 315.82 355.568 315.59 356.258C315.37 356.948 315.59 363.578 316.09 371.008C316.58 378.438 317.22 386.988 317.51 390.008C317.79 393.028 318.48 400.908 319.02 407.508C319.57 414.108 320.45 426.258 320.97 434.508C321.5 442.758 322.4 451.988 322.98 455.008C323.56 458.028 323.97 462.528 323.89 465.008C323.81 467.488 324.3 473.108 324.98 477.508C325.66 481.958 325.92 488.178 325.57 491.508C325.22 494.808 324.16 499.738 323.21 502.468C322.22 505.328 319.8 509.138 317.48 511.468C315.27 513.688 311 516.728 307.98 518.218C304.97 519.708 300.7 521.628 298.5 522.488C296.3 523.348 292.7 524.038 290.5 524.018C288.3 523.998 284.02 523.188 281 522.228C277.98 521.258 272.35 518.788 268.5 516.748C264.65 514.698 259.49 511.338 257.04 509.268C254.58 507.198 247.26 500.328 240.77 494.008C234.28 487.688 228.91 482.058 228.84 481.508C228.77 480.958 219.44 471.508 208.11 460.498C196.77 449.498 182.75 435.998 176.95 430.498C171.15 425.008 160.58 415.108 153.46 408.508C146.35 401.908 137.82 394.028 134.51 390.988C131.21 387.948 125.35 382.758 121.5 379.438C117.65 376.128 111.12 370.508 106.98 366.958C102.85 363.408 97.45 358.868 94.98 356.868C92.52 354.868 86.45 349.918 81.5 345.858C76.55 341.798 70.47 336.918 68 335.018C65.53 333.118 63.28 331.308 63 331.008C62.73 330.708 60.59 329.008 58.25 327.228C55.91 325.458 53.55 324.008 53 324.008C52.45 324.008 51.97 326.148 51.93 328.758C51.9 331.368 51.9 347.008 51.94 363.508C51.98 380.008 52.34 407.908 52.75 425.508C53.16 443.108 53.5 467.858 53.49 480.508C53.48 501.888 53.33 503.828 51.35 508.008C50.18 510.488 47.82 513.968 46.11 515.758C44.4 517.548 42.55 519.008 42 519.008C41.45 519.008 41.01 519.348 41.02 519.758C41.03 520.168 38.44 521.258 35.27 522.178C32.1 523.098 28.15 523.708 26.5 523.548C24.85 523.388 21.28 522.188 18.58 520.878C15.87 519.578 12.22 516.708 10.47 514.508C8.72 512.308 6.66 508.938 5.89 507.008C4.74 504.108 4.46 485.358 4.25 397.258C4.09 327.258 3.66 291.008 3 291.008C2.45 291.008 2.01 290.218 2.02 289.258C2.03 288.298 1.46 286.878 0.77 286.108C-0.22 285.018 -0.23 284.858 0.75 285.358C1.6 285.798 2.01 285.128 2.02 283.258C2.03 281.748 1.46 279.888 0.77 279.138C-0.24 278.038 -0.25 277.678 0.75 277.388C1.55 277.148 1.99 275.108 1.98 271.758C1.97 268.868 2.51 265.948 3.18 265.258C4.12 264.298 4.12 264.008 3.2 264.008C2.46 264.008 1.99 262.388 1.98 259.758C1.97 257.418 2.51 254.948 3.18 254.258C4.12 253.298 4.12 253.008 3.2 253.008C2.54 253.008 2 252.328 2 251.508C2 250.688 2.34 250.188 2.75 250.408C3.16 250.628 3.5 249.988 3.5 248.998C3.5 248.008 3.09 246.808 2.59 246.348C2.06 245.858 1.96 246.038 2.34 246.758C2.77 247.568 2.47 247.828 1.5 247.508C0.67 247.228 0.22 246.558 0.5 246.008C0.77 245.458 1.67 245.008 2.5 245.008C3.32 245.008 3.77 244.558 3.5 244.008C3.22 243.458 2.66 243.188 2.25 243.408C1.84 243.628 1.5 242.278 1.5 240.408C1.5 238.538 1.16 237.008 0.75 237.008C0.34 237.008 0 236.558 0 236.008C0 235.458 0.34 235.058 0.75 235.128C1.16 235.188 1.84 235.188 2.25 235.128C2.66 235.058 2.55 233.658 2 232.008C1.33333 230.008 1.33333 229.008 2 229.008C2.55 229.008 2.32 228.328 1.5 227.508C0.67 226.688 0 225.788 0 225.508C0 225.228 0.45 225.228 1 225.508C1.55 225.788 2.22 225.558 2.5 225.008C2.77 224.458 2.55 224.008 2 224.008C1.45 224.008 1.22 223.108 1.5 222.008C1.77 220.908 1.44 219.248 0.75 218.318C-0.25 216.958 -0.25 216.758 0.75 217.318C1.63 217.798 2 217.108 2 215.008C2 213.358 2.45 212.008 3 212.008C3.55 212.008 3.99 211.218 3.98 210.258C3.97 208.758 3.83 208.728 3 210.008C2.17 211.288 2.03 211.258 2.02 209.758C2.01 208.798 1.55 208.228 1 208.508C0.45 208.788 0.22 208.328 0.5 207.508C0.77 206.688 1.67 206.008 2.5 206.008C3.74 206.008 4 204.118 4 195.008C4 188.338 3.61 184.008 3 184.008C2.45 184.008 2 182.208 2 180.008C2 177.448 2.45 176.028 3.25 176.048C3.94 176.078 3.37 175.168 2 174.038C0.62 172.908 -0.05 172.038 0.5 172.108C1.05 172.188 2.06 172.188 2.75 172.128C3.44 172.058 4 171.558 4 171.008C4 170.458 3.32 170.228 2.5 170.508C1.67 170.788 1.22 170.558 1.5 170.008C1.77 169.458 1.44 168.838 0.75 168.628C-0.21 168.348 -0.18 167.938 0.9 166.878C1.81333 165.985 2.06333 165.945 1.65 166.758C1.2 167.618 1.54 167.808 2.75 167.358C4.29 166.788 4.32 166.578 2.97 165.608C2.14 164.998 1.46 163.928 1.47 163.218C1.49 162.518 2.17 161.508 3 160.988C4.24 160.208 4.15 160.038 2.5 160.028C1.4 160.018 0.5 159.378 0.5 158.608C0.5 157.828 0.84 157.378 1.25 157.608C1.66 157.828 2 157.558 2 157.008C2 156.458 1.44 155.788 0.75 155.508C0.00999999 155.208 -0.1 154.798 0.5 154.498C1.05 154.208 1.39 152.638 1.25 150.998C1.07667 148.998 1.41 148.125 2.25 148.378C2.94 148.588 3.5 148.138 3.5 147.388C3.5 146.578 2.8 146.228 1.75 146.518C0.35 146.908 0.12 146.558 0.58 144.758C0.9 143.518 1.3 140.938 1.48 139.008C1.67 137.078 1.86 134.268 1.91 132.758C1.96 131.248 2.45 130.228 3 130.508C3.55 130.788 3.97 129.778 3.93 128.258C3.87 125.818 3.76 125.738 3 127.508C2.18 129.418 2.14 129.408 2.07 127.258C2.03 126.018 2.34 125.008 2.75 125.008C3.16 125.018 3.8 117.698 4.16 108.758C4.63 97.1183 5.41 90.3083 6.91 84.7583C8.06 80.4983 10.15 73.9683 11.55 70.2583C12.95 66.5483 15.61 60.8083 17.45 57.5083C19.3 54.2083 22.96 48.5883 25.6 45.0083C28.24 41.4283 32.44 36.5383 34.95 34.1283C37.45 31.7083 42.2 27.6983 45.5 25.1983C48.8 22.7083 55.77 18.4883 61 15.8283C66.22 13.1783 72.97 10.2983 76 9.43831C79.03 8.57831 85.1 7.05831 89.5 6.05831C93.9 5.05831 100.42 3.90831 104 3.50831C107.58 3.10831 111.39 2.33831 112.48 1.79831C114.05 1.01831 114.28 1.08831 113.59 2.15831C113.11 2.89831 113.53 2.73831 114.51 1.78831C115.76 0.598306 116.72 0.368306 117.65 1.03831ZM86.5 55.4783C83.2 57.0083 80.28 58.5483 80 58.8983C79.72 59.2383 77.7 60.8483 75.5 62.4783C73.3 64.1083 69.77 67.2583 67.66 69.4783C65.55 71.6983 62.61 75.3083 61.13 77.5083C59.65 79.7083 57.89 82.6383 57.22 84.0083C56.55 85.3883 55.24 88.7583 54.32 91.5083C52.84 95.9383 52.6 103.918 52.28 161.008C52.08 196.488 52.17 226.298 52.46 227.258C52.76 228.218 53.67 229.008 54.5 229.008C55.32 229.008 58.36 227.078 61.25 224.728C64.14 222.378 68.07 219.358 70 218.018C71.92 216.678 79.06 211.068 85.86 205.548C92.65 200.028 100.37 193.938 103.01 192.008C105.65 190.078 111.53 185.578 116.07 182.008C120.62 178.438 126.62 173.768 129.42 171.648C132.21 169.518 136.07 166.318 138 164.538C139.93 162.758 143.53 159.858 146 158.118C148.47 156.368 153.87 152.218 158 148.908C162.12 145.588 169.04 140.098 173.37 136.688C177.69 133.288 183.8 128.478 186.95 126.008C190.1 123.538 196.46 118.608 201.08 115.068C205.71 111.518 209.72 108.348 210 108.018C210.28 107.688 213.43 105.198 217 102.488C220.57 99.7883 224.18 96.9183 225 96.1283C225.82 95.3283 228.97 92.8683 232 90.6683C235.03 88.4583 237.72 86.3683 238 86.0283C238.28 85.6883 241.43 83.2183 245 80.5283C248.57 77.8383 253.41 73.9283 255.75 71.8283C258.09 69.7283 260.34 67.9983 260.75 67.9883C261.16 67.9783 263.3 66.3783 265.5 64.4183C267.7 62.4683 271.43 59.4383 273.78 57.6883C276.13 55.9383 278.04 54.1683 278.03 53.7583C278.01 53.3483 277.44 52.7983 276.75 52.5483C276.06 52.2883 239.28 51.9483 195 51.7983C150.72 51.6383 109.55 51.7683 103.5 52.0883C94.31 52.5783 91.51 53.1383 86.5 55.4783ZM538.5 75.8583C534.65 78.9983 527.67 84.4783 523 88.0383C518.33 91.5983 513.83 95.1483 513 95.9283C512.17 96.7083 508.35 99.8583 504.5 102.918C500.65 105.988 497.27 108.748 497 109.058C496.73 109.368 492.9 112.388 488.5 115.768C484.1 119.138 477.32 124.518 473.43 127.708C469.54 130.898 461.67 137.258 455.93 141.848C450.19 146.438 444.59 150.938 443.47 151.848C442.35 152.758 437.18 156.908 431.97 161.058C426.76 165.208 415.81 173.988 407.64 180.558C399.47 187.128 391.14 193.758 389.14 195.278C387.14 196.808 384.82 198.608 384 199.288C383.18 199.958 380.25 202.308 377.5 204.508C374.75 206.708 372.27 208.758 372 209.048C371.73 209.348 366.32 213.608 360 218.508C353.68 223.408 345.8 229.718 342.5 232.528C339.2 235.348 333.91 239.528 330.75 241.828C327.59 244.128 324.77 246.458 324.5 247.008C324.17 247.668 347.33 248.008 393 248.008C456.66 248.008 462.28 248.148 465.65 249.758C467.66 250.718 470.48 253.078 471.9 255.008C473.33 256.938 475.06 259.518 475.75 260.758C476.44 261.998 477.4 264.698 477.89 266.758C478.43 268.998 478.41 272.318 477.86 275.008C477.35 277.488 476.22 281.078 475.35 283.008C474.47 284.938 472.35 288.008 470.63 289.848C468.91 291.678 466.15 293.888 464.5 294.758C461.85 296.158 453.92 296.318 395.75 296.168C352.47 296.068 330 296.348 330 297.008C330 297.558 333.04 300.868 336.75 304.358C340.46 307.848 350.02 316.208 358 322.948C365.98 329.678 378.31 340.218 385.4 346.348C392.5 352.488 401.37 359.988 405.11 363.008C408.85 366.028 421.87 377.058 434.05 387.508C446.22 397.958 458.33 408.308 460.95 410.508C463.56 412.708 469.71 417.868 474.6 421.968C479.5 426.068 483.73 429.708 484 430.058C484.27 430.408 489.02 434.478 494.55 439.098C500.08 443.728 512.23 454.068 521.55 462.078C530.87 470.088 539.51 477.178 540.75 477.828C541.99 478.478 544.69 479.018 546.75 479.038C549.1 479.058 551.12 478.408 552.15 477.288C553.06 476.308 554.46 473.938 555.27 472.008C556.08 470.078 557.5 463.778 558.43 458.008C559.95 448.488 560.14 430.018 560.38 260.008C560.53 156.878 560.48 69.6983 560.27 66.2583C560.06 62.8183 559.54 60.0083 559.13 60.0083C558.71 60.0083 555.47 62.2883 551.93 65.0783C548.4 67.8583 542.35 72.7083 538.5 75.8583ZM867.41 150.008C867.79 223.118 868 231.588 869.42 232.258C870.29 232.668 886.19 232.578 904.75 232.058C923.31 231.528 946.15 231.068 955.5 231.018C964.85 230.978 972.81 230.618 973.2 230.228C973.58 229.828 970.48 224.108 966.3 217.508C962.12 210.908 956.46 201.908 953.72 197.508C950.98 193.108 945.58 184.558 941.72 178.508C937.86 172.458 932.41 163.908 929.6 159.508C926.8 155.108 924.05 150.738 923.5 149.808C922.95 148.868 917.77 140.638 912 131.518C906.22 122.388 897.75 109.208 893.16 102.218C888.58 95.2283 883.68 87.4783 882.29 85.0083C880.89 82.5383 877.7 77.3583 875.19 73.5083C872.67 69.6583 870.09 65.9583 869.43 65.2983C868.51 64.3483 868.11 64.5683 867.62 66.2983C867.28 67.5083 867.18 105.178 867.41 150.008ZM896.69 284.048C900.44 287.098 907.1 292.328 911.5 295.658C915.9 298.998 925.63 306.398 933.12 312.118C940.6 317.828 955.23 329.008 965.62 336.938C976 344.878 990.8 356.178 998.5 362.048C1006.2 367.918 1015.69 375.148 1019.6 378.108C1023.5 381.078 1032.05 387.578 1038.6 392.548C1045.14 397.528 1055.67 405.618 1062 410.528C1068.33 415.438 1079.01 423.628 1085.75 428.738C1092.49 433.838 1098.21 437.898 1098.46 437.758C1098.72 437.618 1097.35 434.358 1095.42 430.508C1093.5 426.658 1091.38 422.608 1090.71 421.508C1090.05 420.418 1088.78 418.388 1087.9 417.008C1087.02 415.638 1084.84 411.808 1083.05 408.508C1081.26 405.208 1074.14 393.058 1067.23 381.508C1060.32 369.958 1048.8 350.838 1041.65 339.008C1034.49 327.188 1026.76 314.588 1024.47 311.008C1022.18 307.438 1016.53 298.748 1011.91 291.708C1007.28 284.678 1002.83 278.598 1002 278.208C1001.17 277.828 976.19 277.478 946.47 277.438C916.75 277.398 891.87 277.628 891.16 277.938C890.36 278.298 892.42 280.578 896.69 284.048Z" fill="url(#paint0_linear_6_7)"/>
</g>
<defs>
<filter id="filter0_n_6_7" x="0" y="0" width="1417" height="526.582" filterUnits="userSpaceOnUse" color-interpolation-filters="sRGB">
<feFlood flood-opacity="0" result="BackgroundImageFix"/>
<feBlend mode="normal" in="SourceGraphic" in2="BackgroundImageFix" result="shape"/>
<feTurbulence type="fractalNoise" baseFrequency="2 2" stitchTiles="stitch" numOctaves="3" result="noise" seed="5336" />
<feColorMatrix in="noise" type="luminanceToAlpha" result="alphaNoise" />
<feComponentTransfer in="alphaNoise" result="coloredNoise1">
<feFuncA type="discrete" tableValues="1 1 1 1 1 1 1 1 1 1 1 1 1 1 1 1 1 1 1 1 1 1 1 1 1 1 1 1 1 1 1 1 1 1 1 1 1 1 1 1 1 1 1 1 1 1 1 1 1 1 1 0 0 0 0 0 0 0 0 0 0 0 0 0 0 0 0 0 0 0 0 0 0 0 0 0 0 0 0 0 0 0 0 0 0 0 0 0 0 0 0 0 0 0 0 0 0 0 0 0 "/>
</feComponentTransfer>
<feComposite operator="in" in2="shape" in="coloredNoise1" result="noise1Clipped" />
<feComponentTransfer in="alphaNoise" result="coloredNoise2">
<feFuncA type="discrete" tableValues="0 0 0 0 0 0 0 0 0 0 0 0 0 0 0 0 0 0 0 0 0 0 0 0 0 0 0 0 0 0 0 0 0 0 0 0 0 0 0 0 0 0 0 0 0 0 0 0 0 1 1 1 1 1 1 1 1 1 1 1 1 1 1 1 1 1 1 1 1 1 1 1 1 1 1 1 1 1 1 1 1 1 1 1 1 1 1 1 1 1 1 1 1 1 1 1 1 1 1 1 "/>
</feComponentTransfer>
<feComposite operator="in" in2="shape" in="coloredNoise2" result="noise2Clipped" />
<feFlood flood-color="#C6EB3B" result="color1Flood" />
<feComposite operator="in" in2="noise1Clipped" in="color1Flood" result="color1" />
<feFlood flood-color="#5B6C1A" result="color2Flood" />
<feComposite operator="in" in2="noise2Clipped" in="color2Flood" result="color2" />
<feMerge result="effect1_noise_6_7">
<feMergeNode in="shape" />
<feMergeNode in="color1" />
<feMergeNode in="color2" />
</feMerge>
</filter>
<linearGradient id="paint0_linear_6_7" x1="708.5" y1="0" x2="708.5" y2="526.582" gradientUnits="userSpaceOnUse">
<stop stop-color="#5B6C1A"/>
<stop offset="1" stop-color="#C6EB3B"/>
</linearGradient>
</defs>
</svg>
